<?xml version="1.0" standalone="no"?>
<!DOCTYPE svg PUBLIC "-//W3C//DTD SVG 1.1//EN" "http://www.w3.org/Graphics/SVG/1.1/DTD/svg11.dtd" >
<svg xmlns="http://www.w3.org/2000/svg" xmlns:xlink="http://www.w3.org/1999/xlink" version="1.1">
<metadata></metadata>
<defs>
<font id="plutocond_bold" horiz-adv-x="1044" >
<font-face units-per-em="2048" ascent="1536" descent="-512" />
<missing-glyph horiz-adv-x="440" />
<glyph horiz-adv-x="0" />
<glyph horiz-adv-x="0" />
<glyph horiz-adv-x="682" />
<glyph unicode=" "  horiz-adv-x="440" />
<glyph unicode="&#x09;" horiz-adv-x="440" />
<glyph unicode="&#xa0;" horiz-adv-x="440" />
<glyph unicode="!" horiz-adv-x="604" d="M129 152q0 86 44.5 133t127.5 47q85 0 131.5 -47t46.5 -133t-46.5 -132.5t-131.5 -46.5q-83 0 -127.5 46.5t-44.5 132.5zM152 1393h299l-45 -887h-209z" />
<glyph unicode="&#x22;" horiz-adv-x="880" d="M129 1393h231l-14 -525h-205zM522 1393h232l-17 -525h-207z" />
<glyph unicode="#" horiz-adv-x="1236" d="M78 311v215h184l70 330h-142v215h189l70 322h204v-23l-63 -299h207l69 322h207v-23l-63 -299h153v-215h-200l-70 -330h156v-215h-203l-66 -311h-209v23l62 288h-207l-66 -311h-206v23l61 288h-137zM473 526h207l70 330h-207z" />
<glyph unicode="$" d="M55 985q0 158 99.5 273t279.5 145v174h160v-168q105 -4 205.5 -31t169.5 -65l-84 -262q-135 80 -291 90v-318l78 -26q163 -56 239 -145.5t76 -227.5q0 -171 -105.5 -290.5t-287.5 -145.5v-252h-160v248q-105 8 -201.5 38.5t-158.5 65.5l69 274q133 -93 291 -110v334 l-104 37q-137 47 -206 135t-69 227zM348 1008q0 -85 86 -127v243q-86 -35 -86 -116zM594 268q90 39 90 135q0 44 -21.5 73.5t-68.5 53.5v-262z" />
<glyph unicode="%" horiz-adv-x="1628" d="M68 1036q0 178 90.5 277.5t238.5 99.5t240 -100t92 -277t-91.5 -274.5t-240.5 -97.5t-239 97.5t-90 274.5zM276 1036q0 -80 33 -119.5t88 -39.5q56 0 87.5 39t31.5 120q0 82 -31.5 122t-87.5 40q-55 0 -88 -40.5t-33 -121.5zM391 0v23l606 1370h238v-23l-604 -1370h-240z M899 352q0 178 91 277.5t239 99.5q147 0 239.5 -100t92.5 -277q0 -176 -92.5 -274t-239.5 -98q-149 0 -239.5 97.5t-90.5 274.5zM1108 352q0 -80 33 -119.5t88 -39.5q56 0 87.5 39t31.5 120q0 82 -31.5 122t-87.5 40q-55 0 -88 -40.5t-33 -121.5z" />
<glyph unicode="&#x26;" horiz-adv-x="1394" d="M90 358q0 122 67.5 209.5t192.5 155.5q-66 77 -97.5 152t-31.5 174q0 72 26.5 136.5t76 116t129 81.5t178.5 30q192 0 298.5 -96.5t106.5 -269.5q0 -69 -24 -130.5t-66 -108t-90 -81.5t-106 -63l186 -199q117 149 188 334l217 -158q-93 -212 -225 -367l219 -233v-43h-340 l-86 96q-179 -114 -399 -114q-192 0 -306 104.5t-114 273.5zM395 399q0 -71 49.5 -116t130.5 -45q82 0 164 49l-231 260q-58 -33 -85.5 -66.5t-27.5 -81.5zM510 1018q0 -85 82 -184l31 14q125 55 125 170q0 58 -32 97.5t-85 39.5t-87 -39t-34 -98z" />
<glyph unicode="'" horiz-adv-x="489" d="M129 1393h231l-14 -525h-205z" />
<glyph unicode="(" horiz-adv-x="606" d="M90 537q0 169 28.5 327.5t74 274.5t92 197.5t92.5 129.5l166 -96q-80 -135 -137.5 -352t-57.5 -483q0 -263 57.5 -480.5t137.5 -353.5l-166 -96q-45 48 -92 130t-92.5 198.5t-74 275.5t-28.5 328z" />
<glyph unicode=")" horiz-adv-x="606" d="M63 -299q80 138 137.5 355t57.5 479q0 265 -57.5 481.5t-137.5 353.5l166 96q46 -48 92.5 -129.5t92 -197.5t74 -274.5t28.5 -327.5t-28.5 -328t-74 -275.5t-92.5 -198.5t-92 -130z" />
<glyph unicode="*" horiz-adv-x="970" d="M90 1143q2 49 41 82t98 14q71 -24 185 -121q-35 118 -35 232q0 52 31 81t73 29t73.5 -29t31.5 -81q0 -73 -35 -217q95 65 144 85q29 12 57 19q58 16 93.5 -16.5t35.5 -79.5q0 -36 -22.5 -65t-63.5 -38q-81 -22 -217 -22q45 -37 94.5 -91.5t75.5 -95.5q34 -60 0.5 -108.5 t-91.5 -48.5q-53 0 -88 49q-25 41 -51.5 107t-36.5 116q-36 -141 -86 -215q-38 -57 -94 -57q-39 0 -69.5 26t-35.5 63.5t23 80.5q97 119 150 159q-99 10 -207 43q-37 10 -55.5 37.5t-18.5 61.5z" />
<glyph unicode="+" d="M96 502v237h310v373h231v-373h309v-237h-309v-373h-231v373h-310z" />
<glyph unicode="," horiz-adv-x="557" d="M104 145q0 89 45 138t127 49q81 0 128 -51t47 -136q0 -110 -47 -254.5t-103 -242.5l-166 65l74 264q-50 15 -77.5 59.5t-27.5 108.5z" />
<glyph unicode="-" horiz-adv-x="987" d="M135 502v237h719v-237h-719z" />
<glyph unicode="." horiz-adv-x="563" d="M104 152q0 86 46.5 133t130.5 47t130 -47t46 -133t-46 -132.5t-130 -46.5t-130.5 46.5t-46.5 132.5z" />
<glyph unicode="/" horiz-adv-x="903" d="M31 0v23l606 1370h235v-23l-604 -1370h-237z" />
<glyph unicode="0" horiz-adv-x="1286" d="M117 694q0 335 134.5 527t389.5 192q257 0 392.5 -191.5t135.5 -527.5q0 -333 -135.5 -523.5t-392.5 -190.5q-255 0 -389.5 191t-134.5 523zM403 694q0 -436 238 -436q125 0 181.5 112.5t56.5 323.5q0 443 -238 443t-238 -443z" />
<glyph unicode="1" horiz-adv-x="931" d="M16 1065l514 328h222v-1393h-301v1034l-320 -198z" />
<glyph unicode="2" horiz-adv-x="1175" d="M100 913q5 231 129 365.5t344 134.5q114 0 203.5 -34.5t145.5 -96.5t85 -143t29 -178q0 -127 -55.5 -232t-183.5 -231l-242 -234h510v-264h-930v227l443 410q80 79 115.5 148.5t35.5 152.5q0 91 -43.5 145t-128.5 54q-92 0 -139 -75t-47 -202z" />
<glyph unicode="3" horiz-adv-x="1136" d="M96 1329q64 30 179.5 57t218.5 27q243 0 365 -98t122 -287q0 -105 -51.5 -188.5t-136.5 -112.5q115 -45 173 -126t58 -220q0 -188 -134.5 -294.5t-395.5 -106.5q-176 0 -396 83l74 254q150 -79 307 -79q106 0 173 51t67 139q0 82 -52 120t-157 38h-266v258h266 q83 0 126.5 39.5t43.5 103.5q0 82 -57 126t-152 44q-83 0 -173 -29t-136 -57z" />
<glyph unicode="4" horiz-adv-x="1255" d="M59 258v197l527 938h399v-912h193v-223h-193v-258h-299v258h-627zM356 481h330v594z" />
<glyph unicode="5" horiz-adv-x="1128" d="M88 70l74 252q150 -84 305 -84q109 0 177.5 53.5t68.5 161.5q0 93 -62 136.5t-170 43.5h-317l-12 12l55 748h772v-265h-520l-19 -274h82q496 0 496 -395q0 -239 -138.5 -359t-381.5 -120q-207 0 -410 90z" />
<glyph unicode="6" horiz-adv-x="1241" d="M115 698q0 326 145.5 520.5t407.5 194.5q127 0 241.5 -34t173.5 -72l-77 -246q-54 36 -137 65t-164 29q-73 0 -126.5 -25.5t-86 -75t-50.5 -113t-24 -148.5q116 133 291 133q209 0 320.5 -118t111.5 -329q0 -226 -133.5 -362.5t-343.5 -136.5q-260 0 -404.5 194.5 t-144.5 523.5zM426 535q20 -131 75 -205t148 -74q86 0 140.5 64t54.5 159q0 99 -51 151t-140 52q-135 0 -227 -147z" />
<glyph unicode="7" horiz-adv-x="1019" d="M66 1128v265h901v-211l-461 -1182h-330v29l457 1099h-567z" />
<glyph unicode="8" horiz-adv-x="1259" d="M115 381q0 145 55 227t178 119q-94 30 -143 111.5t-49 189.5q0 188 120 286.5t355 98.5q233 0 353 -98.5t120 -286.5q0 -109 -49.5 -190t-145.5 -111q125 -37 181.5 -119t56.5 -227q0 -187 -132.5 -294t-383.5 -107q-253 0 -384.5 107t-131.5 294zM418 428 q0 -90 57 -147.5t156 -57.5q97 0 155 58t58 147q0 84 -53.5 138.5t-161.5 54.5q-103 0 -157 -55t-54 -138zM451 997q0 -74 44.5 -124t133.5 -50q91 0 134.5 49.5t43.5 124.5q0 84 -46 130.5t-130 46.5q-86 0 -133 -46.5t-47 -130.5z" />
<glyph unicode="9" horiz-adv-x="1241" d="M100 913q0 226 133 363t345 137q260 0 404 -195t144 -524q0 -326 -145.5 -520t-407.5 -194q-127 0 -241 33.5t-176 72.5l80 246q54 -36 137 -65t164 -29q140 0 206.5 94t77.5 268q-111 -133 -286 -133q-210 0 -322.5 117.5t-112.5 328.5zM397 913q0 -99 51 -150.5 t140 -51.5q78 0 134 44t91 103q-20 131 -75 205t-148 74q-85 0 -139 -64.5t-54 -159.5z" />
<glyph unicode=":" horiz-adv-x="610" d="M131 145q0 85 45 131t127 46t127 -46t45 -131q0 -83 -45 -128.5t-127 -45.5t-127 45.5t-45 128.5zM131 924q0 84 45 130t127 46t127 -46t45 -130q0 -83 -45 -128.5t-127 -45.5t-127 45.5t-45 128.5z" />
<glyph unicode=";" horiz-adv-x="610" d="M129 924q0 84 45 130t127 46t127 -46t45 -130q0 -83 -45 -128.5t-127 -45.5t-127 45.5t-45 128.5zM137 139q0 86 44 133t122 47q79 0 124.5 -49t45.5 -131q0 -107 -45.5 -247.5t-99.5 -235.5l-162 63l72 256q-49 15 -75 58.5t-26 105.5z" />
<glyph unicode="&#x3c;" d="M98 498v233l830 385h18v-229l-612 -269l612 -264v-231h-18z" />
<glyph unicode="=" d="M98 215v238h848v-238h-848zM98 786v238h848v-238h-848z" />
<glyph unicode="&#x3e;" d="M98 123v231l615 264l-615 269v229h21l827 -385v-233l-827 -375h-21z" />
<glyph unicode="?" horiz-adv-x="876" d="M72 1274q155 139 368 139q166 0 262.5 -95.5t96.5 -238.5q0 -58 -13.5 -109.5t-39.5 -93t-49 -69t-56 -59.5l-94 -89q-24 -24 -32 -33.5t-15.5 -26.5t-7.5 -40t6 -53h-242q-25 73 -25 131q0 51 24.5 90t78.5 82l80 70q41 38 62.5 73t21.5 88q0 55 -34.5 89t-96.5 34 q-111 0 -220 -125zM203 152q0 87 45 133.5t129 46.5t131 -47t47 -133t-47 -132.5t-131 -46.5q-85 0 -129.5 46.5t-44.5 132.5z" />
<glyph unicode="@" horiz-adv-x="1732" d="M82 539q0 279 102 492t283.5 327.5t415.5 114.5q233 0 411 -100.5t275.5 -286t97.5 -429.5q0 -327 -117 -480.5t-321 -153.5q-87 0 -135.5 25.5t-81.5 84.5q-71 -108 -244 -108q-167 0 -271 138.5t-104 356.5q0 221 104 361.5t271 140.5q80 0 134.5 -18.5t90.5 -65.5v68 h285v-668q0 -73 10 -97t45 -24q57 0 99.5 111t42.5 313q0 306 -156 475.5t-436 169.5q-134 0 -244.5 -47.5t-191.5 -139.5t-126 -235t-45 -325q0 -364 160.5 -557t446.5 -193q164 0 299 78l61 -170q-163 -94 -360 -94q-378 0 -589.5 246t-211.5 690zM686 520 q0 -109 48.5 -177.5t127.5 -68.5t131 66v369q-46 59 -131 59q-80 0 -128 -68t-48 -180z" />
<glyph unicode="A" horiz-adv-x="1302" d="M23 0l454 1393h352l445 -1393h-301l-78 272h-492l-79 -272h-301zM479 496h342l-168 596z" />
<glyph unicode="B" horiz-adv-x="1312" d="M176 0v1393h533q202 0 309.5 -92.5t107.5 -280.5q0 -105 -44 -180.5t-124 -114.5q127 -30 195 -114.5t68 -221.5q0 -185 -112.5 -287t-320.5 -102h-612zM479 256h264q164 0 164 152q0 163 -180 163h-248v-315zM479 844h183q159 0 159 149q0 73 -36.5 108.5t-118.5 35.5 h-187v-293z" />
<glyph unicode="C" horiz-adv-x="1292" d="M104 694q0 166 47 302.5t129.5 227.5t195 140t243.5 49q231 0 355 -121.5t128 -363.5l-272 -54q-6 259 -223 259q-135 0 -214 -116t-79 -323q0 -214 86 -324t245 -110q88 0 177.5 49.5t162.5 120.5l119 -250q-87 -85 -216.5 -142.5t-268.5 -57.5q-131 0 -243.5 49 t-195 139t-129.5 225.5t-47 300.5z" />
<glyph unicode="D" horiz-adv-x="1431" d="M176 0v1393h539q132 0 243.5 -46.5t193.5 -133.5t128.5 -220t46.5 -299q0 -165 -46.5 -297.5t-128.5 -218.5t-193.5 -132t-243.5 -46h-539zM479 264h197q161 0 251.5 112t90.5 318q0 209 -90.5 321.5t-251.5 112.5h-197v-864z" />
<glyph unicode="E" horiz-adv-x="1241" d="M176 0v1393h959v-267h-668v-284h541v-258h-541v-320h668v-264h-959z" />
<glyph unicode="F" horiz-adv-x="1175" d="M176 0v1393h924v-267h-633v-381h539v-266h-539v-479h-291z" />
<glyph unicode="G" horiz-adv-x="1366" d="M100 694q0 166 49.5 303t135.5 227t200.5 139.5t245.5 49.5q282 0 465 -162l-123 -241q-148 123 -303 123q-169 0 -263.5 -115t-94.5 -324q0 -214 92.5 -324t249.5 -110q129 0 209 57v254h-283v252h561v-678q-86 -70 -230.5 -117.5t-279.5 -47.5q-131 0 -245.5 49 t-200.5 139t-135.5 226t-49.5 300z" />
<glyph unicode="H" horiz-adv-x="1509" d="M176 0v1393h303v-557h551v557h303v-1393h-303v571h-551v-571h-303z" />
<glyph unicode="I" horiz-adv-x="655" d="M176 0v1393h303v-1393h-303z" />
<glyph unicode="J" horiz-adv-x="1157" d="M29 469l293 29q5 -131 48 -190.5t134 -59.5q92 0 138 63t46 199v883h303v-879q0 -119 -29.5 -216t-89 -169.5t-154.5 -112t-220 -39.5q-224 0 -344 131.5t-125 360.5z" />
<glyph unicode="K" horiz-adv-x="1413" d="M176 0v1393h303v-574h195l299 574h307v-45l-387 -670q24 -32 69.5 -115t82.5 -148t91 -119t105 -54t105 26l28 -235q-38 -23 -96 -38t-115 -15q-69 0 -129.5 31.5t-103.5 79.5t-85 113.5t-71.5 125.5t-65.5 124t-65 101h-164v-555h-303z" />
<glyph unicode="L" horiz-adv-x="1101" d="M176 0v1393h303v-1129h588v-264h-891z" />
<glyph unicode="M" horiz-adv-x="1714" d="M176 0v1393h291l389 -574l389 574h291v-1393h-303v889l-350 -518h-52l-352 518v-889h-303z" />
<glyph unicode="N" horiz-adv-x="1507" d="M176 0v1393h262l588 -885v885h305v-1393h-266l-588 883v-883h-301z" />
<glyph unicode="O" horiz-adv-x="1425" d="M104 694q0 209 73 372t212 255t322 92q184 0 324 -92t214 -255t74 -372q0 -208 -74 -370t-214 -253t-324 -91q-183 0 -321.5 91.5t-212 253t-73.5 369.5zM401 694q0 -214 83.5 -322t226.5 -108q145 0 229 108t84 322q0 217 -84 325.5t-229 108.5q-144 0 -227 -108.5 t-83 -325.5z" />
<glyph unicode="P" horiz-adv-x="1280" d="M176 0v1393h594q90 0 168.5 -31t140 -92t96.5 -160.5t35 -226.5q0 -228 -128 -365t-312 -137h-291v-381h-303zM479 645h226q85 0 140.5 66t55.5 174q0 115 -55 179t-141 64h-226v-483z" />
<glyph unicode="Q" horiz-adv-x="1427" d="M106 694q0 209 73 372t212 255t322 92q184 0 324 -92t214 -255t74 -372q0 -223 -87 -393t-243 -254q35 -39 57 -60.5t55.5 -49t67.5 -40t70 -12.5q103 0 166 29l29 -244q-98 -39 -217 -39q-78 0 -151 30t-129 77t-100 94t-83 90.5t-60 57.5q-180 3 -315.5 95t-207 252 t-71.5 367zM397 694q0 -213 86 -321.5t230 -108.5q145 0 230 108t85 322q0 216 -84.5 324t-230.5 108q-145 0 -230.5 -108t-85.5 -324z" />
<glyph unicode="R" horiz-adv-x="1380" d="M176 0v1393h598q194 0 310 -127t116 -332q0 -160 -88 -273.5t-227 -146.5q14 -16 46 -53.5t48.5 -56t45 -49t49 -46.5t46.5 -34t50.5 -25.5t48.5 -7.5q58 0 116 30l31 -239q-38 -22 -100 -37.5t-121 -15.5q-79 0 -157 43t-142 111t-119.5 137.5t-111 136.5t-95.5 94h-41 v-502h-303zM479 733h219q88 0 141.5 53.5t53.5 143.5q0 95 -52.5 146.5t-142.5 51.5h-219v-395z" />
<glyph unicode="S" horiz-adv-x="1132" d="M102 985q0 184 131.5 305t360.5 121q118 0 233 -28t189 -70l-84 -264q-67 42 -156 67t-170 25q-101 0 -153 -35.5t-52 -99.5q0 -54 28.5 -85t88.5 -51l201 -69q163 -57 239 -148t76 -229q0 -193 -132 -318.5t-355 -125.5q-119 0 -236 33t-190 75l69 277 q167 -113 338 -113q86 0 140.5 38.5t54.5 115.5q0 55 -34.5 87.5t-115.5 59.5l-196 63q-275 93 -275 369z" />
<glyph unicode="T" horiz-adv-x="1132" d="M59 1126v267h1010v-267h-348v-1126h-303v1126h-359z" />
<glyph unicode="U" horiz-adv-x="1431" d="M162 563v830h303v-809q0 -163 60.5 -244.5t187.5 -81.5q252 0 252 328v807h303v-830q0 -126 -33 -230.5t-99 -185t-174 -125.5t-249 -45q-276 0 -413.5 155.5t-137.5 430.5z" />
<glyph unicode="V" horiz-adv-x="1329" d="M27 1393h325l310 -1059l315 1059h328l-455 -1393h-377z" />
<glyph unicode="W" horiz-adv-x="1961" d="M27 1393h321l314 -1053l190 598l-137 455h325l275 -1004l295 1004h327l-454 -1393h-328l-172 580l-184 -580h-326z" />
<glyph unicode="X" horiz-adv-x="1329" d="M53 0v23l400 671l-400 676v23h340l271 -500l270 500h342v-23l-404 -676l404 -671v-23h-346l-266 496l-269 -496h-342z" />
<glyph unicode="Y" horiz-adv-x="1212" d="M8 1370v23h332l268 -568l266 568h332v-23l-450 -821v-549h-297v547z" />
<glyph unicode="Z" horiz-adv-x="1163" d="M109 0v211l559 917h-559v265h946v-211l-557 -918h557v-264h-946z" />
<glyph unicode="[" horiz-adv-x="667" d="M156 -385v1839h436v-237h-203v-1364h203v-238h-436z" />
<glyph unicode="\" horiz-adv-x="903" d="M31 1370v23h235l606 -1370v-23h-237z" />
<glyph unicode="]" horiz-adv-x="667" d="M74 -147h202v1364h-202v237h436v-1839h-436v238z" />
<glyph unicode="^" d="M82 784v23l326 586h221l327 -586v-23h-264l-174 377l-178 -377h-258z" />
<glyph unicode="_" horiz-adv-x="1191" d="M162 -63h870v-230h-870v230z" />
<glyph unicode="`" d="M305 1518h293l141 -316h-245z" />
<glyph unicode="a" horiz-adv-x="1269" d="M90 532q0 258 111.5 408t314.5 150q73 0 140.5 -23t107.5 -72v76h299v-741q0 -94 55 -94q41 0 86 30l10 -239q-92 -47 -219 -47q-85 0 -136 28t-73 103q-94 -129 -280 -129q-192 0 -304 144t-112 406zM393 532q0 -135 55.5 -211.5t153.5 -76.5q47 0 90.5 28t71.5 66v405 q-28 34 -70.5 58t-91.5 24q-99 0 -154 -77.5t-55 -215.5z" />
<glyph unicode="b" horiz-adv-x="1210" d="M145 0v1454h297v-465q101 101 267 101q189 0 300 -145t111 -408t-111 -410t-300 -147q-174 0 -267 104v-84h-297zM442 324q28 -35 71 -57.5t93 -22.5q98 0 154.5 76.5t56.5 211.5q0 138 -56 215.5t-155 77.5q-49 0 -93.5 -23t-70.5 -57v-421z" />
<glyph unicode="c" horiz-adv-x="1062" d="M86 532q0 255 132.5 411.5t350.5 156.5q193 0 295 -96t133 -277l-229 -84q-11 92 -53.5 141.5t-116.5 49.5q-96 0 -150.5 -79t-54.5 -214q0 -303 228 -303q119 0 247 114l117 -233q-174 -148 -401 -148q-248 0 -373 150.5t-125 410.5z" />
<glyph unicode="d" horiz-adv-x="1269" d="M90 537q0 263 112.5 408t303.5 145q156 0 260 -97v461h297v-1120q0 -47 12.5 -72.5t46.5 -25.5q40 0 82 30l10 -239q-36 -20 -97 -33.5t-124 -13.5q-155 0 -205 131q-97 -131 -282 -131q-190 0 -303 147t-113 410zM393 532q0 -135 55 -211.5t152 -76.5q50 0 94 22.5 t72 57.5v421q-27 34 -71 57t-95 23q-98 0 -152.5 -77.5t-54.5 -215.5z" />
<glyph unicode="e" horiz-adv-x="1067" d="M86 532q0 249 132 408.5t349 159.5q105 0 185.5 -33t128.5 -92t72 -135.5t24 -169.5q0 -110 -27 -221h-573q17 -226 235 -226q136 0 250 99l109 -222q-155 -129 -404 -129q-120 0 -213 42t-151 117.5t-87.5 177t-29.5 224.5zM393 666h316q6 21 6 47q0 69 -39 104t-107 35 q-80 0 -125 -50t-51 -136z" />
<glyph unicode="f" horiz-adv-x="815" d="M63 786v236h158v82q0 185 78.5 278t249.5 93q133 0 235 -50l-61 -254q-61 41 -119 41q-44 0 -66 -22t-22 -72v-96h246v-236h-246v-786h-295v786h-158z" />
<glyph unicode="g" horiz-adv-x="1210" d="M92 573q0 238 114 377.5t308 139.5q158 0 252 -101v82h299v-987q0 -126 -36 -221.5t-101 -153.5t-151 -86.5t-191 -28.5q-93 0 -177 17t-122 32.5t-86 39.5l65 254q155 -84 285 -84q48 0 83.5 7.5t67 27t48 58t16.5 95.5v106q-95 -86 -252 -86q-193 0 -307.5 138.5 t-114.5 373.5zM395 573q0 -115 55.5 -182t153.5 -67q89 0 162 77v340q-62 84 -162 84q-98 0 -153.5 -67.5t-55.5 -184.5z" />
<glyph unicode="h" horiz-adv-x="1241" d="M145 0v1454h297v-475q96 111 285 111q326 0 326 -418v-357q0 -43 14 -61t45 -18q43 0 82 28l10 -237q-88 -47 -207 -47q-126 0 -184.5 59.5t-58.5 193.5v377q0 201 -150 201q-106 0 -162 -149v-662h-297z" />
<glyph unicode="i" horiz-adv-x="651" d="M129 1374q0 142 166 142q160 0 160 -142q0 -143 -160 -143q-166 0 -166 143zM143 233v838h299v-756q0 -43 14 -61t44 -18q43 0 82 28l10 -237q-85 -47 -205 -47q-126 0 -185 59.5t-59 193.5z" />
<glyph unicode="j" horiz-adv-x="589" d="M14 -211q63 52 97 118t34 167v997h297v-981q0 -99 -19 -179.5t-55.5 -138.5t-78 -99t-96.5 -76zM135 1374q0 142 160 142q162 0 162 -142q0 -143 -162 -143q-160 0 -160 143z" />
<glyph unicode="k" horiz-adv-x="1169" d="M145 0v1454h297v-784q56 1 97.5 10t81.5 34.5t68 69t50 115.5t35 172h299q-37 -384 -231 -532l270 -502v-37h-307l-211 436q-71 -12 -152 -12v-424h-297z" />
<glyph unicode="l" horiz-adv-x="649" d="M137 246v1208h299v-1126q0 -52 17 -72t53 -20q46 0 90 28l10 -237q-96 -47 -217 -47q-129 0 -190.5 62t-61.5 204z" />
<glyph unicode="m" horiz-adv-x="1814" d="M145 0v1071h297v-90q92 109 277 109q196 0 272 -158q96 158 295 158q179 0 259.5 -104t80.5 -306v-365q0 -43 14 -61t46 -18q39 0 81 28l9 -237q-85 -47 -207 -47q-124 0 -182 59.5t-58 193.5v385q0 101 -36.5 147t-110.5 46q-95 0 -142 -121v-10v-680h-297v618 q0 99 -38.5 146t-106.5 47q-107 0 -156 -131v-680h-297z" />
<glyph unicode="n" horiz-adv-x="1241" d="M145 0v1071h297v-92q96 111 285 111q326 0 326 -418v-357q0 -43 14 -61t45 -18q43 0 82 28l10 -237q-88 -47 -207 -47q-126 0 -184.5 59.5t-58.5 193.5v377q0 201 -150 201q-106 0 -162 -149v-662h-297z" />
<glyph unicode="o" horiz-adv-x="1153" d="M86 532q0 266 132.5 417t356.5 151q225 0 358.5 -151t133.5 -417q0 -263 -133.5 -412t-358.5 -149q-224 0 -356.5 149t-132.5 412zM379 532q0 -142 51.5 -214t144.5 -72q94 0 145.5 72t51.5 214q0 145 -51.5 218t-145.5 73q-93 0 -144.5 -73t-51.5 -218z" />
<glyph unicode="p" horiz-adv-x="1269" d="M53 1044q102 48 221 48q157 0 207 -134q99 134 283 134q190 0 304 -147.5t114 -409.5q0 -263 -114 -408t-304 -145q-161 0 -260 96v-461h-299v1120q0 47 -12.5 72t-47.5 25t-82 -31zM504 326q25 -34 69.5 -57t94.5 -23q99 0 155 77.5t56 215.5q0 135 -56.5 211.5 t-154.5 76.5q-50 0 -94 -22.5t-70 -56.5v-422z" />
<glyph unicode="q" horiz-adv-x="1210" d="M90 532q0 264 111 411t299 147q168 0 266 -105v86h297v-1456h-297v463q-105 -98 -266 -98q-189 0 -299.5 144.5t-110.5 407.5zM393 539q0 -138 55.5 -216.5t153.5 -78.5q48 0 91.5 22.5t72.5 55.5v423q-29 34 -72.5 57t-91.5 23q-98 0 -153.5 -75.5t-55.5 -210.5z" />
<glyph unicode="r" horiz-adv-x="897" d="M53 1044q102 48 221 48q154 0 205 -127q33 66 85 95.5t138 29.5q102 0 164 -48l-37 -280q-68 49 -163 49q-74 0 -111.5 -54t-50.5 -151v-606h-299v737q0 47 -12.5 72t-47.5 25t-82 -31z" />
<glyph unicode="s" horiz-adv-x="927" d="M86 752q0 149 108 243.5t295 94.5q87 0 189 -21t160 -49l-70 -248q-147 68 -258 68q-119 0 -119 -80q0 -32 23 -52t84 -40l125 -37q217 -70 217 -299q0 -148 -105.5 -250t-285.5 -102q-103 0 -196 23t-155 54l58 258q154 -90 270 -90q113 0 113 86q0 43 -23.5 63 t-75.5 38l-133 43q-221 72 -221 297z" />
<glyph unicode="t" horiz-adv-x="897" d="M51 836v235h172l35 272h244v-272h313v-235h-313v-463q0 -68 26.5 -99.5t81.5 -31.5q40 0 89 18t85 45l72 -235q-81 -45 -153 -67.5t-173 -22.5q-149 0 -237 87t-88 267v502h-154z" />
<glyph unicode="u" horiz-adv-x="1247" d="M135 397v674h299v-635q0 -91 30.5 -135.5t110.5 -44.5q111 0 170 113v702h297v-756q0 -43 15 -61t45 -18q43 0 82 28l10 -237q-85 -47 -207 -47q-174 0 -221 116q-99 -116 -295 -116q-336 0 -336 417z" />
<glyph unicode="v" horiz-adv-x="1208" d="M37 1042q81 48 219 48q113 0 172 -68.5t59 -220.5v-328q0 -103 38 -160t110 -57q71 0 116.5 66t45.5 180q0 155 -24.5 307t-61.5 262h305q28 -102 55 -269t27 -321q0 -230 -123.5 -365.5t-343.5 -135.5q-217 0 -329 117t-112 329v317q0 48 -14 69.5t-47 21.5 q-42 0 -82 -29z" />
<glyph unicode="w" horiz-adv-x="1775" d="M37 1044q121 46 227 46q116 0 170.5 -75t54.5 -208v-344q0 -207 134 -207q69 0 108 53t39 164v598h281v-614q0 -94 38.5 -147.5t102.5 -53.5q74 0 115 63.5t41 180.5q0 278 -68 571h305q76 -287 76 -571q0 -252 -110 -386t-316 -134q-122 0 -200.5 37.5t-127.5 132.5 q-50 -94 -128 -132t-195 -38q-394 0 -394 446v315q0 48 -14 70.5t-47 22.5q-43 0 -82 -31z" />
<glyph unicode="x" horiz-adv-x="1089" d="M55 0v23l281 509l-281 517v22h318l170 -379l174 379h319v-22l-284 -517l284 -509v-23h-323l-170 373l-166 -373h-322z" />
<glyph unicode="y" horiz-adv-x="1067" d="M12 1071h328l205 -739l205 739h301l-394 -1151q-56 -167 -141.5 -246.5t-239.5 -79.5q-113 0 -208 60l41 225q73 -39 145 -39q57 0 91 33t56 107l15 51z" />
<glyph unicode="z" horiz-adv-x="950" d="M98 0v211l379 623h-379v237h754v-211l-377 -622h377v-238h-754z" />
<glyph unicode="{" horiz-adv-x="657" d="M63 440v178q99 0 144 36t45 110q0 73 -42 217t-42 221q0 120 75 186t224 66h98v-211h-47q-63 0 -90 -32t-27 -81q0 -51 42 -191.5t42 -217.5q0 -159 -153 -193q153 -34 153 -194q0 -75 -42 -216t-42 -194q0 -112 117 -112h47v-211h-98q-299 0 -299 266q0 76 42 221.5 t42 222.5q0 70 -44 99.5t-145 29.5z" />
<glyph unicode="|" horiz-adv-x="544" d="M156 -385v1839h231v-1839h-231z" />
<glyph unicode="}" horiz-adv-x="659" d="M92 -188h53q60 0 86.5 32t26.5 80q0 53 -42 194t-42 216q0 160 154 194q-154 34 -154 193q0 77 42 217.5t42 191.5q0 49 -26.5 81t-86.5 32h-53v211h103q146 0 220 -66t74 -186q0 -77 -40.5 -221t-40.5 -217q0 -75 44 -110.5t144 -35.5v-178q-102 0 -145 -29.5t-43 -99.5 q0 -77 40.5 -222.5t40.5 -221.5q0 -266 -294 -266h-103v211z" />
<glyph unicode="~" horiz-adv-x="962" d="M98 604q25 78 85 133.5t134 55.5q49 0 97 -23t80 -50t70 -50t69 -23q82 0 137 119l96 -143q-26 -87 -88.5 -141t-136.5 -54q-45 0 -89.5 22.5t-74.5 49t-70.5 49t-78.5 22.5q-42 0 -78.5 -30.5t-56.5 -85.5z" />
<glyph unicode="&#xa1;" horiz-adv-x="577" d="M111 920q0 87 46 133.5t130 46.5q85 0 130.5 -46.5t45.5 -133.5t-46 -135t-130 -48q-83 0 -129.5 48.5t-46.5 134.5zM141 -324l45 887h205l47 -887h-297z" />
<glyph unicode="&#xa2;" d="M72 532q0 249 133.5 408.5t349.5 159.5q29 0 43 -2l53 229l156 -45l-51 -219q91 -39 148.5 -115.5t96.5 -187.5l-217 -103q-44 111 -90 152l-137 -584q12 -2 37 -2q137 0 262 125l105 -229q-75 -69 -177 -108.5t-215 -39.5q-25 0 -71 4l-60 -256l-153 43l59 252 q-136 61 -204 196.5t-68 321.5zM344 543q0 -155 68 -238l129 551q-89 -7 -143 -93t-54 -220z" />
<glyph unicode="&#xa3;" d="M27 207q0 93 53 153t135 60q36 0 74 -19q0 65 -35 224h-162v170h125q-20 113 -20 215q0 86 23 158t69 127.5t121 86.5t172 31q105 0 208.5 -34.5t163.5 -80.5l-86 -262q-42 42 -102.5 71.5t-126.5 29.5q-71 0 -107 -55t-36 -148q0 -41 8 -139h297v-170h-277 q15 -139 15 -217q0 -30 -4 -84q7 -5 40 -34t58 -44t47 -15q47 0 65.5 43t18.5 136v57h246q6 -59 6 -111q0 -176 -64.5 -276t-199.5 -100q-39 0 -83.5 19.5t-70 38t-70.5 57t-55 46.5q-46 -82 -101.5 -121.5t-144.5 -39.5q-94 0 -147 63.5t-53 163.5zM178 193q0 -58 41 -58 q47 0 60 103q-18 18 -46 18q-25 0 -40 -17.5t-15 -45.5z" />
<glyph unicode="&#xa4;" horiz-adv-x="1140" d="M123 340l104 104q-47 71 -47 174q0 104 47 175l-104 106l170 168l110 -113q68 39 160 39q102 0 170 -45l117 119l170 -168l-117 -117q41 -68 41 -164q0 -92 -41 -163l117 -115l-170 -168l-117 117q-70 -43 -170 -43q-93 0 -160 37l-110 -111zM387 618q0 -76 49.5 -127 t126.5 -51t125.5 51t48.5 127q0 75 -49 127t-125 52q-77 0 -126.5 -52t-49.5 -127z" />
<glyph unicode="&#xa5;" d="M33 1370v23h307l176 -605l186 605h308v-23l-289 -690h188v-170h-243v-107h243v-165h-243v-238h-301v238h-244v165h244v107h-244v170h190z" />
<glyph unicode="&#xa6;" horiz-adv-x="561" d="M164 326h233v-711h-233v711zM164 768v686h233v-686h-233z" />
<glyph unicode="&#xa7;" horiz-adv-x="1150" d="M125 582q0 165 129 264q-65 36 -97 90.5t-32 138.5q0 149 125 243.5t342 94.5q114 0 228.5 -26t187.5 -62l-80 -242q-78 37 -175.5 64t-185.5 27q-153 0 -153 -89q0 -17 8 -30.5t17.5 -21.5t30.5 -15.5t34.5 -10.5l40.5 -9q9 -2 14 -3l162 -39q155 -37 231 -120t76 -203 q0 -167 -133 -264q133 -81 133 -222q0 -156 -127.5 -250t-341.5 -94q-119 0 -235 29.5t-183 65.5l66 241q193 -92 366 -92q76 0 117 23t41 65q0 19 -10 34.5t-23.5 25.5t-41.5 20.5t-50 16.5t-63 16l-154 37q-139 35 -201.5 106.5t-62.5 190.5zM385 614q0 -47 25.5 -74 t85.5 -42l118 -33q64 9 103 45.5t39 91.5q0 54 -38.5 89t-103.5 46l-92 23q-66 -13 -101.5 -55t-35.5 -91z" />
<glyph unicode="&#xa8;" d="M147 1370q0 133 152 133q147 0 147 -133q0 -135 -147 -135q-71 0 -111.5 33t-40.5 102zM598 1370q0 133 150 133q149 0 149 -133q0 -69 -40 -102t-109 -33q-150 0 -150 135z" />
<glyph unicode="&#xa9;" horiz-adv-x="1615" d="M92 694q0 152 54.5 285.5t149.5 228.5t227.5 150t283.5 55q152 0 285.5 -55t228.5 -150t150 -228.5t55 -285.5q0 -201 -93 -364.5t-258 -256.5t-368 -93q-201 0 -365 93t-257 256.5t-93 364.5zM248 694q0 -244 158.5 -404.5t400.5 -160.5q120 0 224 43t178 117.5 t116.5 179.5t42.5 225q0 121 -42.5 226t-116.5 180.5t-178 118.5t-224 43q-242 0 -400.5 -161.5t-158.5 -406.5zM453 694q0 165 102 262t260 97q132 0 207 -70t78 -192l-187 -43q0 102 -100 102q-61 0 -98 -41t-37 -115t38 -114.5t105 -40.5q88 0 162 63l119 -153 q-51 -48 -127.5 -80.5t-159.5 -32.5q-158 0 -260 96.5t-102 261.5z" />
<glyph unicode="&#xaa;" horiz-adv-x="915" d="M135 872q0 120 87 183t243 63h27v23q0 54 -22.5 75t-66.5 21t-95.5 -15.5t-80.5 -37.5l-34 176q44 19 125 33t137 14q132 0 181.5 -60.5t49.5 -185.5v-274q0 -28 8 -40.5t31 -12.5q20 0 57 22l6 -160q-80 -32 -153 -32q-84 0 -121 75q-72 -75 -174 -75q-93 0 -149 58 t-56 150zM188 350v160h557v-160h-557zM305 899q0 -74 90 -74q49 0 97 29v133q-21 6 -54 6q-57 0 -95 -23t-38 -71z" />
<glyph unicode="&#xab;" horiz-adv-x="1038" d="M88 588v59l283 420h22l107 -55l-166 -394l166 -393l-107 -55h-22zM512 588v59l285 420h20l109 -55l-164 -394l164 -393l-109 -55h-20z" />
<glyph unicode="&#xac;" d="M98 625v237h848l-2 -610h-231v373h-615z" />
<glyph unicode="&#xad;" horiz-adv-x="987" d="M135 502v237h719v-237h-719z" />
<glyph unicode="&#xae;" horiz-adv-x="1615" d="M92 694q0 152 54.5 285.5t149.5 228.5t227.5 150t283.5 55q152 0 285.5 -55t228.5 -150t150 -228.5t55 -285.5q0 -201 -93 -364.5t-258 -256.5t-368 -93q-201 0 -365 93t-257 256.5t-93 364.5zM248 694q0 -244 158.5 -404.5t400.5 -160.5t400.5 160.5t158.5 404.5 q0 245 -158.5 406.5t-400.5 161.5t-400.5 -161.5t-158.5 -406.5zM510 346v696h338q115 0 189.5 -62.5t74.5 -176.5q0 -73 -42.5 -128t-111.5 -79q97 -68 158 -68q42 0 74 13l18 -179q-54 -26 -118 -26q-54 0 -110.5 24.5t-94.5 53.5t-86 68.5t-72 54.5v-191h-217zM727 735 h109q30 0 49.5 19t19.5 47q0 30 -19 47.5t-50 17.5h-109v-131z" />
<glyph unicode="&#xaf;" d="M293 1245v203h457v-203h-457z" />
<glyph unicode="&#xb0;" horiz-adv-x="851" d="M94 1036q0 177 91.5 277t238.5 100q148 0 240 -100t92 -277t-91.5 -274.5t-240.5 -97.5q-147 0 -238.5 97.5t-91.5 274.5zM291 1036q0 -89 35.5 -133.5t97.5 -44.5t97.5 45t35.5 133q0 91 -35.5 136t-97.5 45t-97.5 -45t-35.5 -136z" />
<glyph unicode="&#xb1;" d="M98 100v238h848v-238h-848zM98 731v238h310v372h231v-372h307v-238h-307v-239h-231v239h-310z" />
<glyph unicode="&#xb2;" horiz-adv-x="632" d="M63 1364q3 118 68.5 186t179.5 68q116 0 176 -64t60 -168q0 -68 -27.5 -124.5t-95.5 -114.5l-111 -92h248v-146h-475v125l221 197q76 68 76 143q0 39 -21 64.5t-59 25.5q-45 0 -67.5 -34.5t-22.5 -94.5z" />
<glyph unicode="&#xb3;" horiz-adv-x="610" d="M61 1577q34 15 94.5 28t120.5 13q118 0 180 -50.5t62 -146.5q0 -51 -26.5 -90.5t-73.5 -56.5q121 -32 121 -174q0 -93 -67.5 -147t-195.5 -54q-100 0 -213 41l39 137q27 -13 74 -25t90 -12q49 0 77 23t28 63q0 37 -24 53.5t-77 16.5h-131v139h131q41 0 61.5 19t20.5 51 q0 72 -92 72q-85 0 -164 -39z" />
<glyph unicode="&#xb4;" d="M305 1202l141 316h293l-188 -316h-246z" />
<glyph unicode="&#xb5;" horiz-adv-x="1196" d="M160 -385v1456h299v-514q0 -162 30.5 -231.5t118.5 -69.5q101 0 160 109v706h299v-1071h-299v72q-99 -92 -272 -92q-27 0 -37 2v-367h-299z" />
<glyph unicode="&#xb6;" horiz-adv-x="1097" d="M59 780q0 136 76 213.5t195 77.5h321v-1456h-215v877h-106q-120 0 -195.5 75.5t-75.5 212.5zM754 -385v1456h215v-1456h-215z" />
<glyph unicode="&#xb7;" horiz-adv-x="585" d="M117 604q0 86 46 133t130 47t130 -47t46 -133t-46 -132t-130 -46t-130 46t-46 132z" />
<glyph unicode="&#xb8;" d="M348 -383l23 98q64 -22 108 -22q84 0 84 55q0 53 -84 53q-70 0 -108 -10l-9 10l54 203h114l-30 -119q18 6 43 6q72 0 112.5 -38t40.5 -99q0 -75 -57.5 -117.5t-149.5 -42.5q-73 0 -141 23z" />
<glyph unicode="&#xb9;" horiz-adv-x="514" d="M18 1436l269 170h114v-697h-161v508l-156 -104z" />
<glyph unicode="&#xba;" horiz-adv-x="880" d="M111 1036q0 181 90 279t239 98t240.5 -98t91.5 -279q0 -180 -91 -276t-241 -96t-239.5 95.5t-89.5 276.5zM162 350v160h559v-160h-559zM293 1036q0 -98 40 -147t107 -49q69 0 108.5 49t39.5 147q0 99 -39.5 149t-108.5 50q-67 0 -107 -50t-40 -149z" />
<glyph unicode="&#xbb;" horiz-adv-x="1036" d="M111 223l165 395l-165 390l108 59h21l282 -420v-59l-282 -418h-21zM537 223l165 395l-165 390l108 59h23l280 -420v-59l-280 -418h-23z" />
<glyph unicode="&#xbc;" horiz-adv-x="1492" d="M51 1231l268 170h115v-696h-162v507l-155 -104zM305 0v23l643 1370h162v-23l-641 -1370h-164zM844 123v110l260 463h215v-448h94v-125h-94v-123h-164v123h-311zM1006 248h149v270z" />
<glyph unicode="&#xbd;" horiz-adv-x="1490" d="M51 1231l268 170h115v-696h-162v507l-155 -104zM305 0v23l643 1370h162v-23l-641 -1370h-164zM903 455q3 118 68.5 186t179.5 68q116 0 175.5 -64t59.5 -168q0 -68 -27.5 -124.5t-94.5 -112.5l-111 -95h248v-145h-475v125l221 197q76 68 76 143q0 40 -21 66t-59 26 q-45 0 -67.5 -35.5t-22.5 -95.5z" />
<glyph unicode="&#xbe;" horiz-adv-x="1560" d="M80 1372q34 15 94.5 28t120.5 13q118 0 180 -50.5t62 -145.5q0 -51 -27 -91t-74 -57q121 -32 121 -174q0 -93 -67 -147t-195 -54q-100 0 -213 41l39 137q26 -13 73.5 -24.5t90.5 -11.5q49 0 76.5 23t27.5 63q0 37 -23.5 53t-76.5 16h-131v139h131q41 0 61.5 19t20.5 51 q0 72 -92 72q-85 0 -164 -39zM383 0v23l643 1370h162v-23l-641 -1370h-164zM926 123v110l260 463h215v-448h94v-125h-94v-123h-164v123h-311zM1087 248h150v270z" />
<glyph unicode="&#xbf;" horiz-adv-x="858" d="M70 -8q0 108 43 184.5t114 147.5l97 88q21 22 29 32t15 27t7 39q0 20 -6 55h241q27 -71 27 -133q0 -49 -24 -88t-78 -84l-80 -67q-28 -27 -43.5 -45t-29 -49.5t-13.5 -67.5q0 -56 36 -89.5t97 -33.5q116 0 219 123l74 -236q-157 -137 -367 -137q-168 0 -263 94.5 t-95 239.5zM313 918q0 87 46 133.5t130 46.5q86 0 131.5 -46t45.5 -134q0 -86 -46 -133.5t-131 -47.5q-83 0 -129.5 48t-46.5 133z" />
<glyph unicode="&#xc0;" horiz-adv-x="1302" d="M23 0l454 1393h352l445 -1393h-301l-78 272h-492l-79 -272h-301zM356 1839h293l142 -315h-246zM479 496h342l-168 596z" />
<glyph unicode="&#xc1;" horiz-adv-x="1302" d="M23 0l454 1393h352l445 -1393h-301l-78 272h-492l-79 -272h-301zM479 496h342l-168 596zM498 1524l141 315h293l-189 -315h-245z" />
<glyph unicode="&#xc2;" horiz-adv-x="1302" d="M23 0l454 1393h352l445 -1393h-301l-78 272h-492l-79 -272h-301zM332 1524l174 315h291l174 -315h-219l-101 170l-102 -170h-217zM479 496h342l-168 596z" />
<glyph unicode="&#xc3;" horiz-adv-x="1302" d="M23 0l454 1393h352l445 -1393h-301l-78 272h-492l-79 -272h-301zM309 1659q29 75 85.5 125.5t119.5 50.5q44 0 85 -18.5t67.5 -41t59 -41t62.5 -18.5q76 0 117 90l86 -112q-79 -176 -207 -176q-40 0 -81 18.5t-69.5 40.5t-61 40.5t-58.5 18.5q-69 0 -123 -90zM479 496 h342l-168 596z" />
<glyph unicode="&#xc4;" horiz-adv-x="1302" d="M23 0l454 1393h352l445 -1393h-301l-78 272h-492l-79 -272h-301zM279 1692q0 133 151 133q148 0 148 -133q0 -69 -39.5 -102.5t-108.5 -33.5q-71 0 -111 33.5t-40 102.5zM479 496h342l-168 596zM729 1692q0 133 150 133q149 0 149 -133q0 -69 -40 -102.5t-109 -33.5 q-150 0 -150 136z" />
<glyph unicode="&#xc5;" horiz-adv-x="1302" d="M23 0l454 1393h6q-30 47 -30 108q0 83 58.5 142t141.5 59t142 -59t59 -142q0 -57 -33 -108h8l445 -1393h-301l-78 272h-492l-79 -272h-301zM479 496h342l-168 596zM571 1501q0 -35 23.5 -58.5t58.5 -23.5q34 0 57 23.5t23 58.5q0 34 -23 57t-57 23q-35 0 -58.5 -23 t-23.5 -57z" />
<glyph unicode="&#xc6;" horiz-adv-x="1892" d="M-10 0l653 1393h1141v-267h-668v-292h541v-244h-541v-326h668v-264h-953v272h-409l-117 -272h-315zM530 496h301v643z" />
<glyph unicode="&#xc7;" horiz-adv-x="1294" d="M104 694q0 166 47 302.5t129.5 227.5t195 140t243.5 49q231 0 355 -121.5t128 -363.5l-272 -54q-6 259 -223 259q-135 0 -214 -116t-79 -323q0 -214 86 -324t245 -110q88 0 177.5 49.5t162.5 120.5l119 -250q-87 -85 -216.5 -142.5t-268.5 -57.5l-25 -95q18 6 43 6 q72 0 113 -38t41 -99q0 -75 -57.5 -117.5t-149.5 -42.5q-73 0 -141 23l22 98q64 -22 109 -22q84 0 84 55q0 53 -84 53q-71 0 -109 -10l-8 10l49 189q-226 39 -364 225.5t-138 478.5z" />
<glyph unicode="&#xc8;" horiz-adv-x="1241" d="M176 0v1393h959v-267h-668v-284h541v-258h-541v-320h668v-264h-959zM373 1839h293l141 -315h-246z" />
<glyph unicode="&#xc9;" horiz-adv-x="1241" d="M176 0v1393h959v-267h-668v-284h541v-258h-541v-320h668v-264h-959zM510 1524l141 315h293l-188 -315h-246z" />
<glyph unicode="&#xca;" horiz-adv-x="1241" d="M176 0v1393h959v-267h-668v-284h541v-258h-541v-320h668v-264h-959zM342 1524l174 315h291l174 -315h-219l-100 170l-103 -170h-217z" />
<glyph unicode="&#xcb;" horiz-adv-x="1241" d="M176 0v1393h959v-267h-668v-284h541v-258h-541v-320h668v-264h-959zM287 1692q0 133 151 133q148 0 148 -133q0 -69 -39.5 -102.5t-108.5 -33.5q-71 0 -111 33.5t-40 102.5zM737 1692q0 133 150 133q149 0 149 -133q0 -69 -40 -102.5t-109 -33.5q-150 0 -150 136z" />
<glyph unicode="&#xcc;" horiz-adv-x="655" d="M33 1839h293l141 -315h-246zM176 0v1393h303v-1393h-303z" />
<glyph unicode="&#xcd;" horiz-adv-x="655" d="M176 0v1393h303v-1393h-303zM199 1524l141 315h293l-189 -315h-245z" />
<glyph unicode="&#xce;" horiz-adv-x="655" d="M10 1524l174 315h291l174 -315h-219l-100 170l-103 -170h-217zM176 0v1393h303v-1393h-303z" />
<glyph unicode="&#xcf;" horiz-adv-x="655" d="M-49 1692q0 133 151 133q148 0 148 -133q0 -69 -39.5 -102.5t-108.5 -33.5q-71 0 -111 33.5t-40 102.5zM176 0v1393h303v-1393h-303zM401 1692q0 133 150 133q149 0 149 -133q0 -69 -40 -102.5t-109 -33.5q-150 0 -150 136z" />
<glyph unicode="&#xd0;" horiz-adv-x="1431" d="M74 582v223h102v588h539q132 0 243.5 -46.5t193.5 -133.5t128.5 -220t46.5 -299q0 -165 -46.5 -297.5t-128.5 -218.5t-193.5 -132t-243.5 -46h-539v582h-102zM479 264h197q161 0 253.5 112.5t92.5 317.5q0 208 -92 321t-254 113h-197v-323h203v-223h-203v-318z" />
<glyph unicode="&#xd1;" horiz-adv-x="1507" d="M176 0v1393h262l588 -885v885h305v-1393h-266l-588 883v-883h-301zM416 1659q29 75 85.5 125.5t119.5 50.5q44 0 85 -18.5t67.5 -41t59 -41t62.5 -18.5q76 0 117 90l86 -112q-79 -176 -207 -176q-40 0 -81 18.5t-69.5 40.5t-61 40.5t-58.5 18.5q-69 0 -123 -90z" />
<glyph unicode="&#xd2;" horiz-adv-x="1425" d="M104 694q0 209 73 372t212 255t322 92q184 0 324 -92t214 -255t74 -372q0 -208 -74 -370t-214 -253t-324 -91q-183 0 -321.5 91.5t-212 253t-73.5 369.5zM401 694q0 -214 83.5 -322t226.5 -108q145 0 229 108t84 322q0 217 -84 325.5t-229 108.5q-144 0 -227 -108.5 t-83 -325.5zM412 1839h293l141 -315h-246z" />
<glyph unicode="&#xd3;" horiz-adv-x="1425" d="M104 694q0 209 73 372t212 255t322 92q184 0 324 -92t214 -255t74 -372q0 -208 -74 -370t-214 -253t-324 -91q-183 0 -321.5 91.5t-212 253t-73.5 369.5zM401 694q0 -214 83.5 -322t226.5 -108q145 0 229 108t84 322q0 217 -84 325.5t-229 108.5q-144 0 -227 -108.5 t-83 -325.5zM578 1524l141 315h293l-189 -315h-245z" />
<glyph unicode="&#xd4;" horiz-adv-x="1425" d="M104 694q0 209 73 372t212 255t322 92q184 0 324 -92t214 -255t74 -372q0 -208 -74 -370t-214 -253t-324 -91q-183 0 -321.5 91.5t-212 253t-73.5 369.5zM393 1524l174 315h291l174 -315h-219l-100 170l-103 -170h-217zM401 694q0 -214 83.5 -322t226.5 -108 q145 0 229 108t84 322q0 217 -84 325.5t-229 108.5q-144 0 -227 -108.5t-83 -325.5z" />
<glyph unicode="&#xd5;" horiz-adv-x="1425" d="M104 694q0 209 73 372t212 255t322 92q184 0 324 -92t214 -255t74 -372q0 -208 -74 -370t-214 -253t-324 -91q-183 0 -321.5 91.5t-212 253t-73.5 369.5zM371 1659q29 75 85.5 125.5t118.5 50.5q44 0 85.5 -18.5t67.5 -41t59 -41t63 -18.5q76 0 117 90l86 -112 q-79 -176 -207 -176q-40 0 -81.5 18.5t-69.5 40.5t-61 40.5t-59 18.5q-68 0 -122 -90zM401 694q0 -214 83.5 -322t226.5 -108q145 0 229 108t84 322q0 217 -84 325.5t-229 108.5q-144 0 -227 -108.5t-83 -325.5z" />
<glyph unicode="&#xd6;" horiz-adv-x="1425" d="M104 694q0 209 73 372t212 255t322 92q184 0 324 -92t214 -255t74 -372q0 -208 -74 -370t-214 -253t-324 -91q-183 0 -321.5 91.5t-212 253t-73.5 369.5zM340 1692q0 133 152 133q147 0 147 -133q0 -69 -39 -102.5t-108 -33.5q-71 0 -111.5 33.5t-40.5 102.5zM401 694 q0 -214 83.5 -322t226.5 -108q145 0 229 108t84 322q0 217 -84 325.5t-229 108.5q-144 0 -227 -108.5t-83 -325.5zM791 1692q0 133 149 133q150 0 150 -133q0 -69 -40.5 -102.5t-109.5 -33.5q-149 0 -149 136z" />
<glyph unicode="&#xd7;" d="M137 356l221 265l-221 262l166 170l219 -267l217 267l166 -170l-219 -262l219 -265l-166 -168l-217 265l-219 -265z" />
<glyph unicode="&#xd8;" horiz-adv-x="1425" d="M104 694q0 209 73 372t212 255t322 92q187 0 333 -100l56 80h198v-23l-124 -180q149 -197 149 -496q0 -208 -74 -370t-214 -253t-324 -91q-177 0 -312 83l-45 -63h-202v23l112 161q-160 199 -160 510zM401 694q0 -154 41 -250l439 633q-68 51 -170 51q-144 0 -227 -108.5 t-83 -325.5zM561 301q64 -37 150 -37q145 0 229 108t84 322q0 135 -35 228z" />
<glyph unicode="&#xd9;" horiz-adv-x="1431" d="M162 563v830h303v-809q0 -163 60.5 -244.5t187.5 -81.5q252 0 252 328v807h303v-830q0 -126 -33 -230.5t-99 -185t-174 -125.5t-249 -45q-276 0 -413.5 155.5t-137.5 430.5zM418 1839h293l141 -315h-246z" />
<glyph unicode="&#xda;" horiz-adv-x="1431" d="M162 563v830h303v-809q0 -163 60.5 -244.5t187.5 -81.5q252 0 252 328v807h303v-830q0 -126 -33 -230.5t-99 -185t-174 -125.5t-249 -45q-276 0 -413.5 155.5t-137.5 430.5zM582 1524l141 315h293l-189 -315h-245z" />
<glyph unicode="&#xdb;" horiz-adv-x="1431" d="M162 563v830h303v-809q0 -163 60.5 -244.5t187.5 -81.5q252 0 252 328v807h303v-830q0 -126 -33 -230.5t-99 -185t-174 -125.5t-249 -45q-276 0 -413.5 155.5t-137.5 430.5zM395 1524l174 315h291l174 -315h-219l-100 170l-103 -170h-217z" />
<glyph unicode="&#xdc;" horiz-adv-x="1431" d="M162 563v830h303v-809q0 -163 60.5 -244.5t187.5 -81.5q252 0 252 328v807h303v-830q0 -126 -33 -230.5t-99 -185t-174 -125.5t-249 -45q-276 0 -413.5 155.5t-137.5 430.5zM342 1692q0 133 152 133q147 0 147 -133q0 -69 -39 -102.5t-108 -33.5q-71 0 -111.5 33.5 t-40.5 102.5zM793 1692q0 133 149 133q150 0 150 -133q0 -69 -40.5 -102.5t-109.5 -33.5q-149 0 -149 136z" />
<glyph unicode="&#xdd;" horiz-adv-x="1212" d="M8 1370v23h332l268 -568l266 568h332v-23l-450 -821v-549h-297v547zM473 1524l141 315h293l-188 -315h-246z" />
<glyph unicode="&#xde;" horiz-adv-x="1275" d="M176 0v1393h299v-189h291q91 0 168.5 -29t138.5 -87t96 -155.5t35 -223.5q0 -116 -35 -210t-95.5 -154.5t-139.5 -93t-168 -32.5h-291v-219h-299zM475 483h221q89 0 147 60.5t58 167.5q0 112 -57 170.5t-148 58.5h-221v-457z" />
<glyph unicode="&#xdf;" horiz-adv-x="1249" d="M145 0v942q0 124 28 219t74.5 153.5t113 95.5t135.5 51t151 14q106 0 191 -37.5t135 -98.5t76 -130.5t26 -139.5q0 -61 -17 -121.5t-38 -99t-38 -73t-17 -48.5q0 -13 21 -38t51 -59.5t60 -77.5t51 -104t21 -126q0 -148 -95.5 -245t-254.5 -97q-144 0 -264 49l31 239 q62 -32 121 -32q61 0 99 36t38 97q0 46 -30.5 96.5t-67 86t-67 77t-30.5 71.5q0 27 19 67.5t41.5 78.5t41.5 92.5t19 105.5q0 73 -36.5 117.5t-115.5 44.5q-88 0 -131 -64.5t-43 -201.5v-940h-299z" />
<glyph unicode="&#xe0;" horiz-adv-x="1269" d="M90 532q0 258 111.5 408t314.5 150q73 0 140.5 -23t107.5 -72v76h299v-741q0 -94 55 -94q41 0 86 30l10 -239q-92 -47 -219 -47q-85 0 -136 28t-73 103q-94 -129 -280 -129q-192 0 -304 144t-112 406zM344 1518h293l141 -316h-246zM393 532q0 -135 55.5 -211.5 t153.5 -76.5q47 0 90.5 28t71.5 66v405q-28 34 -70.5 58t-91.5 24q-99 0 -154 -77.5t-55 -215.5z" />
<glyph unicode="&#xe1;" horiz-adv-x="1269" d="M90 532q0 258 111.5 408t314.5 150q73 0 140.5 -23t107.5 -72v76h299v-741q0 -94 55 -94q41 0 86 30l10 -239q-92 -47 -219 -47q-85 0 -136 28t-73 103q-94 -129 -280 -129q-192 0 -304 144t-112 406zM393 532q0 -135 55.5 -211.5t153.5 -76.5q47 0 90.5 28t71.5 66v405 q-28 34 -70.5 58t-91.5 24q-99 0 -154 -77.5t-55 -215.5zM487 1202l142 316h293l-189 -316h-246z" />
<glyph unicode="&#xe2;" horiz-adv-x="1269" d="M90 532q0 258 111.5 408t314.5 150q73 0 140.5 -23t107.5 -72v76h299v-741q0 -94 55 -94q41 0 86 30l10 -239q-92 -47 -219 -47q-85 0 -136 28t-73 103q-94 -129 -280 -129q-192 0 -304 144t-112 406zM303 1202l174 316h291l174 -316h-219l-100 170l-103 -170h-217z M393 532q0 -135 55.5 -211.5t153.5 -76.5q47 0 90.5 28t71.5 66v405q-28 34 -70.5 58t-91.5 24q-99 0 -154 -77.5t-55 -215.5z" />
<glyph unicode="&#xe3;" horiz-adv-x="1269" d="M90 532q0 258 111.5 408t314.5 150q73 0 140.5 -23t107.5 -72v76h299v-741q0 -94 55 -94q41 0 86 30l10 -239q-92 -47 -219 -47q-85 0 -136 28t-73 103q-94 -129 -280 -129q-192 0 -304 144t-112 406zM293 1337q29 75 85.5 125.5t119.5 50.5q44 0 85 -18.5t67.5 -40.5 t59 -40.5t62.5 -18.5q76 0 117 90l86 -113q-79 -176 -207 -176q-40 0 -81 18.5t-69.5 41t-61 41t-58.5 18.5q-69 0 -123 -90zM393 532q0 -135 55.5 -211.5t153.5 -76.5q47 0 90.5 28t71.5 66v405q-28 34 -70.5 58t-91.5 24q-99 0 -154 -77.5t-55 -215.5z" />
<glyph unicode="&#xe4;" horiz-adv-x="1269" d="M90 532q0 258 111.5 408t314.5 150q73 0 140.5 -23t107.5 -72v76h299v-741q0 -94 55 -94q41 0 86 30l10 -239q-92 -47 -219 -47q-85 0 -136 28t-73 103q-94 -129 -280 -129q-192 0 -304 144t-112 406zM264 1370q0 133 152 133q147 0 147 -133q0 -135 -147 -135 q-71 0 -111.5 33t-40.5 102zM393 532q0 -135 55.5 -211.5t153.5 -76.5q47 0 90.5 28t71.5 66v405q-28 34 -70.5 58t-91.5 24q-99 0 -154 -77.5t-55 -215.5zM715 1370q0 133 149 133q150 0 150 -133q0 -69 -40 -102t-110 -33q-149 0 -149 135z" />
<glyph unicode="&#xe5;" horiz-adv-x="1269" d="M90 532q0 258 111.5 408t314.5 150q73 0 140.5 -23t107.5 -72v76h299v-741q0 -94 55 -94q41 0 86 30l10 -239q-92 -47 -219 -47q-85 0 -136 28t-73 103q-94 -129 -280 -129q-192 0 -304 144t-112 406zM393 532q0 -135 55.5 -211.5t153.5 -76.5q47 0 90.5 28t71.5 66v405 q-28 34 -70.5 58t-91.5 24q-99 0 -154 -77.5t-55 -215.5zM422 1372q0 83 59 142t142 59t141.5 -59t58.5 -142t-58.5 -142t-141.5 -59t-142 59t-59 142zM541 1372q0 -35 23.5 -58.5t58.5 -23.5q34 0 56.5 23.5t22.5 58.5q0 34 -22.5 57t-56.5 23q-35 0 -58.5 -23t-23.5 -57z " />
<glyph unicode="&#xe6;" horiz-adv-x="1638" d="M68 324q0 153 117.5 251.5t318.5 98.5q65 0 147 -8q0 105 -34.5 142.5t-122.5 37.5q-66 0 -157 -22t-138 -50l-45 254q182 72 405 72q214 0 281 -174q37 71 120 122.5t211 51.5q377 0 377 -424q0 -125 -24 -227h-582q6 -115 62.5 -170.5t173.5 -55.5q143 0 260 105 l98 -209q-158 -148 -393 -148q-123 0 -211.5 42t-138.5 112q-165 -154 -383 -154q-153 0 -247.5 95.5t-94.5 257.5zM362 326q0 -47 27.5 -75t79.5 -28q101 0 182 76v145q-40 7 -94 7q-93 0 -144 -32.5t-51 -92.5zM958 666h345q2 10 2 39q0 147 -156 147q-89 0 -137 -49.5 t-54 -136.5z" />
<glyph unicode="&#xe7;" horiz-adv-x="1064" d="M88 532q0 255 132.5 411.5t350.5 156.5q193 0 295 -96t133 -277l-229 -84q-11 92 -53.5 141.5t-116.5 49.5q-96 0 -150.5 -79t-54.5 -214q0 -303 228 -303q119 0 247 114l117 -233q-171 -145 -391 -148l-23 -86q18 6 43 6q72 0 113 -38t41 -99q0 -75 -57.5 -117.5 t-149.5 -42.5q-73 0 -141 23l22 98q64 -22 109 -22q84 0 84 55q0 53 -84 53q-71 0 -109 -10l-8 10l47 179q-198 30 -296.5 175t-98.5 377z" />
<glyph unicode="&#xe8;" horiz-adv-x="1067" d="M86 532q0 249 132 408.5t349 159.5q105 0 185.5 -33t128.5 -92t72 -135.5t24 -169.5q0 -110 -27 -221h-573q17 -226 235 -226q136 0 250 99l109 -222q-155 -129 -404 -129q-120 0 -213 42t-151 117.5t-87.5 177t-29.5 224.5zM301 1518h293l141 -316h-246zM393 666h316 q6 21 6 47q0 69 -39 104t-107 35q-80 0 -125 -50t-51 -136z" />
<glyph unicode="&#xe9;" horiz-adv-x="1067" d="M86 532q0 249 132 408.5t349 159.5q105 0 185.5 -33t128.5 -92t72 -135.5t24 -169.5q0 -110 -27 -221h-573q17 -226 235 -226q136 0 250 99l109 -222q-155 -129 -404 -129q-120 0 -213 42t-151 117.5t-87.5 177t-29.5 224.5zM393 666h316q6 21 6 47q0 69 -39 104t-107 35 q-80 0 -125 -50t-51 -136zM432 1202l141 316h293l-188 -316h-246z" />
<glyph unicode="&#xea;" horiz-adv-x="1067" d="M86 532q0 249 132 408.5t349 159.5q105 0 185.5 -33t128.5 -92t72 -135.5t24 -169.5q0 -110 -27 -221h-573q17 -226 235 -226q136 0 250 99l109 -222q-155 -129 -404 -129q-120 0 -213 42t-151 117.5t-87.5 177t-29.5 224.5zM256 1202l174 316h291l174 -316h-219 l-101 170l-102 -170h-217zM393 666h316q6 21 6 47q0 69 -39 104t-107 35q-80 0 -125 -50t-51 -136z" />
<glyph unicode="&#xeb;" horiz-adv-x="1067" d="M86 532q0 249 132 408.5t349 159.5q105 0 185.5 -33t128.5 -92t72 -135.5t24 -169.5q0 -110 -27 -221h-573q17 -226 235 -226q136 0 250 99l109 -222q-155 -129 -404 -129q-120 0 -213 42t-151 117.5t-87.5 177t-29.5 224.5zM199 1370q0 133 151 133q148 0 148 -133 q0 -135 -148 -135q-151 0 -151 135zM393 666h316q6 21 6 47q0 69 -39 104t-107 35q-80 0 -125 -50t-51 -136zM649 1370q0 133 150 133q149 0 149 -133q0 -69 -40 -102t-109 -33q-150 0 -150 135z" />
<glyph unicode="&#xec;" horiz-adv-x="651" d="M14 1518h293l142 -316h-246zM143 233v838h297v-756q0 -43 15 -61t45 -18q43 0 82 28l10 -237q-85 -47 -207 -47q-126 0 -184 59.5t-58 193.5z" />
<glyph unicode="&#xed;" horiz-adv-x="651" d="M143 233v838h297v-756q0 -43 15 -61t45 -18q43 0 82 28l10 -237q-85 -47 -207 -47q-126 0 -184 59.5t-58 193.5zM150 1202l141 316h293l-189 -316h-245z" />
<glyph unicode="&#xee;" horiz-adv-x="651" d="M-27 1202l174 316h291l174 -316h-219l-100 170l-103 -170h-217zM143 233v838h297v-756q0 -43 15 -61t45 -18q43 0 82 28l10 -237q-85 -47 -207 -47q-126 0 -184 59.5t-58 193.5z" />
<glyph unicode="&#xef;" horiz-adv-x="651" d="M-78 1370q0 133 152 133q147 0 147 -133q0 -135 -147 -135q-71 0 -111.5 33t-40.5 102zM143 233v838h297v-756q0 -43 15 -61t45 -18q43 0 82 28l10 -237q-85 -47 -207 -47q-126 0 -184 59.5t-58 193.5zM373 1370q0 133 149 133q150 0 150 -133q0 -69 -40 -102t-110 -33 q-149 0 -149 135z" />
<glyph unicode="&#xf0;" horiz-adv-x="1101" d="M72 479q0 198 96 322.5t266 124.5q131 0 250 -103q-27 171 -137 307l-82 -100l-76 68l86 106q-61 52 -125 80l119 191q87 -18 170 -70l78 94l78 -67l-72 -89q124 -106 198 -273t74 -372q0 -346 -127.5 -532t-367.5 -186q-190 0 -309 136.5t-119 362.5zM367 475 q0 -99 39.5 -159t105.5 -60q153 0 178 317q-88 109 -170 109q-72 0 -112.5 -51.5t-40.5 -155.5z" />
<glyph unicode="&#xf1;" horiz-adv-x="1241" d="M145 0v1071h297v-92q96 111 285 111q326 0 326 -418v-357q0 -43 14 -61t45 -18q43 0 82 28l10 -237q-88 -47 -207 -47q-126 0 -184.5 59.5t-58.5 193.5v377q0 201 -150 201q-106 0 -162 -149v-662h-297zM274 1337q29 75 85.5 125.5t119.5 50.5q44 0 85.5 -18.5 t67.5 -40.5t59 -40.5t63 -18.5q75 0 116 90l86 -113q-79 -176 -206 -176q-40 0 -81.5 18.5t-69.5 41t-61 41t-59 18.5q-69 0 -123 -90z" />
<glyph unicode="&#xf2;" horiz-adv-x="1153" d="M86 532q0 266 132.5 417t356.5 151q225 0 358.5 -151t133.5 -417q0 -263 -133.5 -412t-358.5 -149q-224 0 -356.5 149t-132.5 412zM279 1518h292l142 -316h-246zM379 532q0 -142 51.5 -214t144.5 -72q94 0 145.5 72t51.5 214q0 145 -51.5 218t-145.5 73q-93 0 -144.5 -73 t-51.5 -218z" />
<glyph unicode="&#xf3;" horiz-adv-x="1153" d="M86 532q0 266 132.5 417t356.5 151q225 0 358.5 -151t133.5 -417q0 -263 -133.5 -412t-358.5 -149q-224 0 -356.5 149t-132.5 412zM379 532q0 -142 51.5 -214t144.5 -72q94 0 145.5 72t51.5 214q0 145 -51.5 218t-145.5 73q-93 0 -144.5 -73t-51.5 -218zM442 1202 l142 316h293l-189 -316h-246z" />
<glyph unicode="&#xf4;" horiz-adv-x="1153" d="M86 532q0 266 132.5 417t356.5 151q225 0 358.5 -151t133.5 -417q0 -263 -133.5 -412t-358.5 -149q-224 0 -356.5 149t-132.5 412zM258 1202l174 316h291l174 -316h-219l-100 170l-103 -170h-217zM379 532q0 -142 51.5 -214t144.5 -72q94 0 145.5 72t51.5 214 q0 145 -51.5 218t-145.5 73q-93 0 -144.5 -73t-51.5 -218z" />
<glyph unicode="&#xf5;" horiz-adv-x="1153" d="M86 532q0 266 132.5 417t356.5 151q225 0 358.5 -151t133.5 -417q0 -263 -133.5 -412t-358.5 -149q-224 0 -356.5 149t-132.5 412zM233 1337q29 75 85.5 125.5t119.5 50.5q44 0 85.5 -18.5t67.5 -40.5t59 -40.5t63 -18.5q75 0 116 90l86 -113q-79 -176 -206 -176 q-40 0 -81.5 18.5t-69.5 41t-61 41t-59 18.5q-69 0 -123 -90zM379 532q0 -142 51.5 -214t144.5 -72q94 0 145.5 72t51.5 214q0 145 -51.5 218t-145.5 73q-93 0 -144.5 -73t-51.5 -218z" />
<glyph unicode="&#xf6;" horiz-adv-x="1153" d="M86 532q0 266 132.5 417t356.5 151q225 0 358.5 -151t133.5 -417q0 -263 -133.5 -412t-358.5 -149q-224 0 -356.5 149t-132.5 412zM201 1370q0 133 151 133q148 0 148 -133q0 -135 -148 -135q-151 0 -151 135zM379 532q0 -142 51.5 -214t144.5 -72q94 0 145.5 72 t51.5 214q0 145 -51.5 218t-145.5 73q-93 0 -144.5 -73t-51.5 -218zM651 1370q0 133 150 133q149 0 149 -133q0 -69 -40 -102t-109 -33q-150 0 -150 135z" />
<glyph unicode="&#xf7;" d="M98 502v237h848v-237h-848zM371 217q0 76 39.5 118t113.5 42q71 0 111.5 -42.5t40.5 -117.5q0 -77 -40.5 -119.5t-111.5 -42.5q-75 0 -114 42t-39 120zM371 1020q0 76 39.5 119t113.5 43q70 0 111 -43.5t41 -118.5q0 -77 -40.5 -118.5t-111.5 -41.5q-75 0 -114 41 t-39 119z" />
<glyph unicode="&#xf8;" horiz-adv-x="1153" d="M86 532q0 266 132.5 417t356.5 151q162 0 277 -80l37 51h137v-22l-80 -115q121 -149 121 -402q0 -263 -133.5 -412t-358.5 -149q-145 0 -262 68l-26 -39h-137v23l69 98q-133 148 -133 411zM379 532q0 -94 20 -153l289 407q-46 37 -113 37q-93 0 -144.5 -73t-51.5 -218z M477 272q42 -26 98 -26q94 0 145.5 72t51.5 214q0 74 -16 136z" />
<glyph unicode="&#xf9;" horiz-adv-x="1247" d="M135 397v674h299v-635q0 -91 30.5 -135.5t110.5 -44.5q111 0 170 113v702h297v-756q0 -43 15 -61t45 -18q43 0 82 28l10 -237q-85 -47 -207 -47q-174 0 -221 116q-99 -116 -295 -116q-336 0 -336 417zM285 1518h293l141 -316h-246z" />
<glyph unicode="&#xfa;" horiz-adv-x="1247" d="M135 397v674h299v-635q0 -91 30.5 -135.5t110.5 -44.5q111 0 170 113v702h297v-756q0 -43 15 -61t45 -18q43 0 82 28l10 -237q-85 -47 -207 -47q-174 0 -221 116q-99 -116 -295 -116q-336 0 -336 417zM475 1202l141 316h293l-188 -316h-246z" />
<glyph unicode="&#xfb;" horiz-adv-x="1247" d="M135 397v674h299v-635q0 -91 30.5 -135.5t110.5 -44.5q111 0 170 113v702h297v-756q0 -43 15 -61t45 -18q43 0 82 28l10 -237q-85 -47 -207 -47q-174 0 -221 116q-99 -116 -295 -116q-336 0 -336 417zM274 1202l175 316h290l174 -316h-219l-100 170l-102 -170h-218z" />
<glyph unicode="&#xfc;" horiz-adv-x="1247" d="M135 397v674h299v-635q0 -91 30.5 -135.5t110.5 -44.5q111 0 170 113v702h297v-756q0 -43 15 -61t45 -18q43 0 82 28l10 -237q-85 -47 -207 -47q-174 0 -221 116q-99 -116 -295 -116q-336 0 -336 417zM225 1370q0 133 152 133q147 0 147 -133q0 -135 -147 -135 q-71 0 -111.5 33t-40.5 102zM676 1370q0 133 149 133q150 0 150 -133q0 -69 -40 -102t-110 -33q-149 0 -149 135z" />
<glyph unicode="&#xfd;" horiz-adv-x="1067" d="M12 1071h328l205 -739l205 739h301l-394 -1151q-56 -167 -141.5 -246.5t-239.5 -79.5q-113 0 -208 60l41 225q73 -39 145 -39q57 0 91 33t56 107l15 51zM408 1202l141 316h293l-189 -316h-245z" />
<glyph unicode="&#xfe;" horiz-adv-x="1210" d="M145 -385v1839h297v-465q101 101 267 101q189 0 300 -145t111 -408t-111 -410t-300 -147q-174 0 -267 104v-469h-297zM442 324q28 -35 71 -57.5t93 -22.5q98 0 154.5 76.5t56.5 211.5q0 138 -56 215.5t-155 77.5q-49 0 -93.5 -23t-70.5 -57v-421z" />
<glyph unicode="&#xff;" horiz-adv-x="1067" d="M12 1071h328l205 -739l205 739h301l-394 -1151q-56 -167 -141.5 -246.5t-239.5 -79.5q-113 0 -208 60l41 225q73 -39 145 -39q57 0 91 33t56 107l15 51zM172 1370q0 133 152 133q147 0 147 -133q0 -135 -147 -135q-71 0 -111.5 33t-40.5 102zM623 1370q0 133 149 133 q150 0 150 -133q0 -69 -40 -102t-110 -33q-149 0 -149 135z" />
<glyph unicode="&#x152;" horiz-adv-x="2031" d="M102 692q0 204 77 368t214 257.5t307 93.5q152 0 271 -80v62h954v-267h-665v-292h538v-244h-538v-326h665v-264h-954v61q-130 -84 -271 -84q-170 0 -307 93t-214 256.5t-77 365.5zM389 692q0 -185 93 -308.5t239 -123.5q77 0 142 31t108 88v633q-95 116 -252 116 q-145 0 -237.5 -124t-92.5 -312z" />
<glyph unicode="&#x153;" horiz-adv-x="1853" d="M86 532q0 266 131 417t354 151q136 0 240.5 -61.5t161.5 -172.5q57 109 155.5 171.5t225.5 62.5q205 0 307 -121.5t102 -325.5q0 -47 -8 -110.5t-16 -93.5h-582q0 -61 21 -109.5t75 -82.5t136 -34q130 0 266 107l98 -221q-161 -138 -385 -138q-285 0 -399 224 q-57 -107 -160.5 -165.5t-237.5 -58.5q-224 0 -354.5 148.5t-130.5 412.5zM371 532q0 -141 55 -213.5t149 -72.5q95 0 150 72.5t55 213.5q0 144 -55 217.5t-150 73.5q-94 0 -149 -74t-55 -217zM1174 666h311q2 14 2 41q0 65 -37.5 105t-103.5 40q-81 0 -122 -47.5 t-50 -138.5z" />
<glyph unicode="&#x178;" horiz-adv-x="1212" d="M8 1370v23h332l268 -568l266 568h332v-23l-450 -821v-549h-297v547zM233 1692q0 133 152 133q147 0 147 -133q0 -69 -39 -102.5t-108 -33.5q-71 0 -111.5 33.5t-40.5 102.5zM684 1692q0 133 150 133q149 0 149 -133q0 -69 -40 -102.5t-109 -33.5q-150 0 -150 136z" />
<glyph unicode="&#x2c6;" d="M203 1202l174 316h291l174 -316h-219l-101 170l-102 -170h-217z" />
<glyph unicode="&#x2dc;" d="M180 1337q29 75 85.5 125.5t119.5 50.5q44 0 85 -18.5t67.5 -40.5t59 -40.5t62.5 -18.5q76 0 117 90l86 -113q-79 -176 -207 -176q-40 0 -81 18.5t-69.5 41t-61 41t-58.5 18.5q-69 0 -123 -90z" />
<glyph unicode="&#x2000;" horiz-adv-x="919" />
<glyph unicode="&#x2001;" horiz-adv-x="1839" />
<glyph unicode="&#x2002;" horiz-adv-x="919" />
<glyph unicode="&#x2003;" horiz-adv-x="1839" />
<glyph unicode="&#x2004;" horiz-adv-x="613" />
<glyph unicode="&#x2005;" horiz-adv-x="459" />
<glyph unicode="&#x2006;" horiz-adv-x="306" />
<glyph unicode="&#x2007;" horiz-adv-x="306" />
<glyph unicode="&#x2008;" horiz-adv-x="229" />
<glyph unicode="&#x2009;" horiz-adv-x="367" />
<glyph unicode="&#x200a;" horiz-adv-x="102" />
<glyph unicode="&#x2010;" horiz-adv-x="987" d="M135 502v237h719v-237h-719z" />
<glyph unicode="&#x2011;" horiz-adv-x="987" d="M135 502v237h719v-237h-719z" />
<glyph unicode="&#x2012;" horiz-adv-x="987" d="M135 502v237h719v-237h-719z" />
<glyph unicode="&#x2013;" horiz-adv-x="1159" d="M135 502v237h889v-237h-889z" />
<glyph unicode="&#x2014;" horiz-adv-x="1603" d="M135 502v237h1333v-237h-1333z" />
<glyph unicode="&#x2018;" horiz-adv-x="550" d="M100 913q0 109 47.5 256t102.5 244l164 -70l-74 -260q106 -34 106 -170q0 -88 -44.5 -137t-127.5 -49q-81 0 -127.5 49.5t-46.5 136.5z" />
<glyph unicode="&#x2019;" horiz-adv-x="544" d="M106 1225q0 89 45.5 137.5t127.5 48.5q81 0 127.5 -50.5t46.5 -135.5q0 -110 -47 -255.5t-103 -242.5l-166 66l74 264q-50 15 -77.5 59.5t-27.5 108.5z" />
<glyph unicode="&#x201a;" horiz-adv-x="557" d="M104 145q0 89 45 138t127 49q81 0 128 -51t47 -136q0 -110 -47 -254.5t-103 -242.5l-166 65l74 264q-50 15 -77.5 59.5t-27.5 108.5z" />
<glyph unicode="&#x201c;" horiz-adv-x="913" d="M100 963q0 97 42.5 231.5t90.5 218.5l144 -57l-66 -246q92 -23 92 -147q0 -79 -38.5 -122.5t-110.5 -43.5q-71 0 -112.5 45t-41.5 121zM506 963q0 97 42.5 231.5t90.5 218.5l143 -57l-67 -246q45 -12 69.5 -50.5t24.5 -96.5q0 -78 -39 -122t-111 -44t-112.5 45t-40.5 121 z" />
<glyph unicode="&#x201d;" horiz-adv-x="909" d="M104 1249q0 77 40 119.5t112 42.5q70 0 110 -44.5t40 -117.5q0 -100 -42 -234t-90 -218l-141 59l66 242q-95 27 -95 151zM510 1249q0 77 39.5 119.5t109.5 42.5t112 -44.5t42 -117.5q0 -99 -42.5 -233t-90.5 -219l-141 59l63 242q-92 27 -92 151z" />
<glyph unicode="&#x201e;" horiz-adv-x="917" d="M104 98q0 77 39.5 120.5t112.5 43.5q71 0 111.5 -44.5t40.5 -119.5q0 -99 -42 -232t-90 -218l-143 57l66 244q-46 12 -70.5 51t-24.5 98zM510 98q0 77 39 120.5t110 43.5t112.5 -45t41.5 -119q0 -100 -42 -233.5t-91 -216.5l-143 57l67 244q-94 23 -94 149z" />
<glyph unicode="&#x2022;" horiz-adv-x="698" d="M109 618q0 125 62.5 194t176.5 69t177 -69t63 -194q0 -126 -63 -194t-177 -68t-176.5 68t-62.5 194z" />
<glyph unicode="&#x2026;" horiz-adv-x="1495" d="M106 135q0 78 42.5 122t117.5 44q77 0 120.5 -44t43.5 -122q0 -81 -43 -123.5t-121 -42.5q-76 0 -118 42.5t-42 123.5zM588 135q0 78 42 122t118 44q75 0 118 -44t43 -122q0 -81 -42.5 -123.5t-118.5 -42.5q-77 0 -118.5 42.5t-41.5 123.5zM1069 135q0 78 42 122t118 44 q75 0 117.5 -44t42.5 -122q0 -81 -42 -123.5t-118 -42.5q-77 0 -118.5 42.5t-41.5 123.5z" />
<glyph unicode="&#x202f;" horiz-adv-x="367" />
<glyph unicode="&#x2039;" horiz-adv-x="610" d="M88 588v59l283 420h22l107 -55l-166 -394l166 -393l-107 -55h-22z" />
<glyph unicode="&#x203a;" horiz-adv-x="610" d="M111 223l165 395l-165 390l108 59h21l282 -420v-59l-282 -418h-21z" />
<glyph unicode="&#x205f;" horiz-adv-x="459" />
<glyph unicode="&#x20ac;" d="M47 465v166h78v71v27h-78v168h90q36 250 167.5 383t334.5 133q218 0 356 -135l-100 -238q-94 97 -223 97q-179 0 -226 -240h373l-63 -168h-324v-27v-71h297l-55 -166h-217q53 -209 215 -209q60 0 103.5 17.5t96.5 58.5l107 -238q-160 -114 -348 -114t-315.5 127 t-170.5 358h-98z" />
<glyph unicode="&#x2122;" horiz-adv-x="1499" d="M137 1194v164h455v-164h-152v-463h-153v463h-150zM715 731v627h139l172 -248l174 248h137v-627h-157v344l-140 -194h-28l-138 194v-344h-159z" />
<glyph unicode="&#x25fc;" horiz-adv-x="1075" d="M0 0v1075h1075v-1075h-1075z" />
<glyph unicode="&#xfb01;" horiz-adv-x="1452" d="M63 786v236h158v82q0 185 78.5 278t249.5 93q133 0 235 -50l-61 -254q-61 41 -119 41q-44 0 -66 -22t-22 -72v-96h246v-236h-246v-786h-295v786h-158zM930 1374q0 142 166 142q159 0 159 -142q0 -143 -159 -143q-166 0 -166 143zM944 233v838h299v-756q0 -43 13.5 -61 t43.5 -18q43 0 82 28l11 -237q-85 -47 -205 -47q-126 0 -185 59.5t-59 193.5z" />
<glyph unicode="&#xfb02;" horiz-adv-x="1452" d="M63 786v236h158v82q0 185 78.5 278t249.5 93q133 0 235 -50l-61 -254q-61 41 -119 41q-44 0 -66 -22t-22 -72v-96h246v-236h-246v-786h-295v786h-158zM940 246v1208h299v-1126q0 -52 17 -72t53 -20q46 0 90 28l10 -237q-96 -47 -217 -47q-129 0 -190.5 62t-61.5 204z" />
</font>
</defs>
</svg>
